{
  "accessors": [
    {
      "bufferView": 2,
      "componentType": 5126,
      "count": 33124,
      "max": [
        0.0941459983587265,
        0.08037599921226501,
        0.165243998169899
      ],
      "min": [
        -0.0950620025396347,
        -0.10561200231313705,
        -0.1465969979763031
      ],
      "type": "VEC3"
    },
    {
      "bufferView": 2,
      "byteOffset": 397488,
      "componentType": 5126,
      "count": 33124,
      "max": [
        0.9999231100082397,
        0.9999963045120239,
        0.9999860525131226
      ],
      "min": [
        -0.9999972581863403,
        -0.9999723434448242,
        -0.9999778270721436
      ],
      "type": "VEC3"
    },
    {
      "bufferView": 3,
      "componentType": 5126,
      "count": 33124,
      "max": [
        0.9999859929084778,
        0.9998911023139954,
        0.9999991059303284,
        1.0
      ],
      "min": [
        -0.9999420642852783,
        -0.9993760585784912,
        -0.9999823570251465,
        -1.0
      ],
      "type": "VEC4"
    },
    {
      "bufferView": 1,
      "componentType": 5126,
      "count": 33124,
      "max": [
        0.9657449722290039,
        0.9998850226402283
      ],
      "min": [
        7.500000356230885e-05,
        1.1000000085914508e-05
      ],
      "type": "VEC2"
    },
    {
      "bufferView": 0,
      "componentType": 5125,
      "count": 192000,
      "type": "SCALAR"
    }
  ],
  "asset": {
    "extras": {
      "author": "Minneapolis Institute of Art (https://sketchfab.com/artsmia)",
      "license": "CC0-1.0 (http://creativecommons.org/publicdomain/zero/1.0/)",
      "source": "https://sketchfab.com/3d-models/buddha-shakyamuni-8th-c-ce-582f777c0ff24cb49cab20d963da59f0",
      "title": "Buddha Shakyamuni, 8th C CE"
    },
    "generator": "Sketchfab-12.65.0",
    "version": "2.0"
  },
  "bufferViews": [
    {
      "buffer": 0,
      "byteLength": 768000,
      "name": "floatBufferViews",
      "target": 34963
    },
    {
      "buffer": 0,
      "byteLength": 264992,
      "byteOffset": 768000,
      "byteStride": 8,
      "name": "floatBufferViews",
      "target": 34962
    },
    {
      "buffer": 0,
      "byteLength": 794976,
      "byteOffset": 1032992,
      "byteStride": 12,
      "name": "floatBufferViews",
      "target": 34962
    },
    {
      "buffer": 0,
      "byteLength": 529984,
      "byteOffset": 1827968,
      "byteStride": 16,
      "name": "floatBufferViews",
      "target": 34962
    }
  ],
  "buffers": [
    {
      "byteLength": 2357952,
      "uri": "scene.bin"
    }
  ],
  "images": [
    {
      "uri": "textures/191025_mia337_000887_64K_OBJ_baseColor.jpeg"
    },
    {
      "uri": "textures/191025_mia337_000887_64K_OBJ_metallicRoughness.png"
    },
    {
      "uri": "textures/191025_mia337_000887_64K_OBJ_normal.png"
    }
  ],
  "materials": [
    {
      "doubleSided": true,
      "name": "191025_mia337_000887_64K_OBJ",
      "normalTexture": {
        "index": 2
      },
      "occlusionTexture": {
        "index": 1
      },
      "pbrMetallicRoughness": {
        "baseColorTexture": {
          "index": 0
        },
        "metallicFactor": 0.0,
        "metallicRoughnessTexture": {
          "index": 1
        },
        "roughnessFactor": 0.6
      }
    }
  ],
  "meshes": [
    {
      "name": "Object_0",
      "primitives": [
        {
          "attributes": {
            "NORMAL": 1,
            "POSITION": 0,
            "TANGENT": 2,
            "TEXCOORD_0": 3
          },
          "indices": 4,
          "material": 0,
          "mode": 4
        }
      ]
    }
  ],
  "nodes": [
    {
      "children": [
        1
      ],
      "matrix": [
        1.0,
        0.0,
        0.0,
        0.0,
        0.0,
        2.220446049250313e-16,
        -1.0,
        0.0,
        0.0,
        1.0,
        2.220446049250313e-16,
        0.0,
        0.0,
        0.0,
        0.0,
        1.0
      ],
      "name": "Sketchfab_model"
    },
    {
      "children": [
        2
      ],
      "name": "Mia_000887_ShakyamuniBuddha.obj.cleaner.materialmerger.gles"
    },
    {
      "mesh": 0,
      "name": "Object_2"
    }
  ],
  "samplers": [
    {
      "magFilter": 9729,
      "minFilter": 9987,
      "wrapS": 10497,
      "wrapT": 10497
    }
  ],
  "scene": 0,
  "scenes": [
    {
      "name": "Sketchfab_Scene",
      "nodes": [
        0
      ]
    }
  ],
  "textures": [
    {
      "sampler": 0,
      "source": 0
    },
    {
      "sampler": 0,
      "source": 1
    },
    {
      "sampler": 0,
      "source": 2
    }
  ]
}
